<?xml version="1.0" standalone="no"?>
<!DOCTYPE svg PUBLIC "-//W3C//DTD SVG 20010904//EN"
 "http://www.w3.org/TR/2001/REC-SVG-20010904/DTD/svg10.dtd">
<svg version="1.0" xmlns="http://www.w3.org/2000/svg"
 width="735.000000pt" height="140.000000pt" viewBox="0 0 1935.000000 140.000000"
 preserveAspectRatio="xMidYMid meet">

<g transform="translate(0.000000,140.000000) scale(0.100000,-0.100000)"
fill="#000000" stroke="none">
<path d="M0 700 l0 -700 9675 0 9675 0 0 700 0 700 -9675 0 -9675 0 0 -700z
m17330 682 c0 -9 -941 -133 -1002 -132 -108 1 6 22 420 77 441 59 582 72 582
55z m-2086 -10 c6 -9 -452 -72 -579 -80 -152 -9 -64 13 198 49 267 37 372 46
381 31z m-7069 -12 c-52 -23 -552 -74 -532 -54 11 11 407 62 482 62 49 1 64
-2 50 -8z m7783 5 c-2 -3 -315 -45 -694 -95 -379 -50 -876 -116 -1104 -146
-421 -56 -614 -75 -595 -57 6 6 276 44 600 86 756 99 1495 196 1565 206 61 9
236 14 228 6z m-3660 -10 c-5 -6 -105 -19 -1143 -155 -423 -55 -795 -104 -825
-108 l-55 -7 -3 -48 -3 -47 -320 0 -319 0 -2 48 -2 47 -3 -48 -4 -47 -354 0
c-195 1 -394 -2 -443 -6 -49 -4 -106 -4 -126 0 l-36 7 -2 77 -2 77 -3 -77 -4
-78 -99 0 -100 0 0 65 c0 63 -1 65 -25 65 -14 0 -25 5 -25 10 0 6 11 10 25 10
20 0 25 5 25 25 l0 25 100 0 c73 0 100 -3 101 -12 0 -10 2 -10 6 0 3 8 30 12
86 12 45 0 199 16 342 35 261 35 355 42 355 27 0 -5 -84 -19 -187 -33 l-188
-24 278 -3 277 -2 2 -38 1 -37 4 38 4 37 320 0 319 0 0 -40 c0 -22 3 -40 8
-39 4 0 423 56 932 123 799 107 1108 141 1088 121z m-1300 -20 c-12 -12 -712
-96 -730 -88 -14 6 75 21 284 49 269 37 461 53 446 39z m2171 0 c-11 -11
-1311 -175 -1380 -174 -40 1 -65 4 -54 7 11 3 299 42 640 87 529 71 813 99
794 80z m5400 0 c-5 -5 -176 -28 -1411 -190 -804 -105 -1029 -130 -973 -105
11 5 178 29 370 54 586 76 1183 155 1520 200 274 38 509 57 494 41z m-15394
-26 c-16 -4 -188 -29 -381 -54 -323 -42 -456 -53 -442 -39 10 10 721 102 788
102 53 0 59 -2 35 -9z m2090 -20 c-16 -5 -343 -50 -725 -100 -382 -49 -881
-115 -1108 -145 -377 -49 -601 -68 -517 -43 17 5 446 63 955 130 509 66 1002
131 1095 143 173 24 360 33 300 15z m1290 1 c17 -4 24 -8 17 -9 -7 0 -218 -28
-469 -61 -445 -59 -543 -68 -543 -52 0 4 98 20 218 36 820 108 730 98 777 86z
m-2512 -58 c20 -8 -611 -93 -687 -92 -27 0 -47 2 -45 4 3 4 194 30 644 89 48
6 69 6 88 -1z m3825 -17 c-8 -9 -448 -65 -506 -65 -98 0 -45 14 151 41 172 24
368 37 355 24z m8872 -14 c-8 -5 -37 -11 -65 -14 -63 -8 -1488 -194 -1888
-247 -276 -37 -490 -52 -397 -29 19 5 314 45 655 89 341 45 834 110 1095 145
441 58 637 77 600 56z m2480 -11 c14 -4 19 -8 11 -9 -7 -1 -304 -39 -659 -86
-579 -76 -788 -98 -769 -79 7 7 1316 182 1362 182 17 0 41 -4 55 -8z m-12415
-20 c-33 -14 -1114 -150 -1189 -150 -38 0 -67 2 -65 5 3 2 214 32 469 65 256
34 508 67 560 74 109 16 256 19 225 6z m-4247 -15 c-3 -3 -450 -63 -1921 -255
-374 -49 -467 -58 -467 -42 0 4 96 20 213 36 390 51 1268 166 1647 216 206 27
393 50 415 52 42 3 118 -2 113 -7z m12400 9 c-11 -10 -1214 -164 -1287 -164
-41 0 -72 2 -70 4 2 2 166 25 364 51 198 26 468 62 600 80 217 30 407 44 393
29z m-13008 -11 c0 -9 -931 -133 -1050 -141 -177 -11 -28 15 447 78 499 67
603 77 603 63z m5694 -61 c2 -4 -142 -27 -322 -51 -180 -23 -478 -62 -662 -86
-184 -25 -542 -72 -794 -105 -389 -51 -622 -73 -605 -56 2 2 249 36 549 76
300 39 811 106 1135 149 579 77 689 89 699 73z m5511 -22 c17 -4 26 -8 21 -9
-5 0 -320 -42 -700 -91 -380 -50 -843 -111 -1030 -135 -186 -25 -340 -45 -340
-45 -1 0 -13 -14 -25 -31 l-23 -31 21 -14 c49 -35 68 -142 36 -203 -17 -34
-62 -73 -101 -89 -29 -12 -1002 -142 -1058 -142 -17 0 -37 4 -43 8 -7 4 186
34 430 65 243 32 455 60 471 64 l28 5 -23 12 c-19 10 -27 10 -40 -1 -11 -9
-46 -13 -112 -13 -89 0 -97 2 -108 22 l-12 22 -8 -22 -8 -22 -336 0 -335 0
-20 33 -20 32 0 -27 c0 -34 -19 -40 -115 -36 -59 3 -71 6 -79 23 -9 21 -9 21
-54 -2 -60 -30 -167 -32 -231 -3 l-44 20 -22 -20 c-21 -19 -33 -21 -126 -19
-74 2 -178 -7 -359 -31 -150 -19 -267 -30 -284 -26 -16 4 -27 9 -25 11 2 2 68
11 147 21 78 9 140 19 138 21 -2 3 -77 4 -167 4 -104 0 -167 3 -176 10 -10 9
-13 57 -13 208 l0 197 -41 -4 c-33 -4 -39 -7 -33 -21 4 -9 9 -41 11 -71 4 -44
0 -64 -19 -99 -27 -51 -91 -91 -145 -91 l-33 0 0 -54 c0 -34 -5 -58 -14 -65
-9 -8 -43 -11 -93 -9 -67 3 -79 6 -87 23 -9 21 -9 21 -54 -2 -34 -17 -62 -23
-114 -23 -74 0 -122 15 -176 57 -35 26 -35 26 -122 15 -103 -14 -163 -15 -156
-4 3 5 57 15 121 22 63 7 115 16 115 19 -1 3 -7 17 -15 31 -8 14 -14 35 -15
47 0 19 -4 22 -27 18 -16 -3 -131 -18 -258 -35 -126 -16 -284 -36 -350 -45
-98 -13 -207 -13 -193 0 2 2 186 27 410 56 l406 53 7 45 c10 68 37 122 80 160
l38 33 -49 -6 c-417 -55 -1984 -260 -2114 -277 -112 -14 -186 -19 -205 -14
-17 4 -23 10 -15 12 13 2 1858 245 2208 290 87 11 133 13 155 6 23 -7 41 -6
62 3 50 22 143 17 202 -10 l51 -24 6 24 c6 24 8 24 132 24 132 0 173 -10 208
-49 13 -14 31 -21 55 -21 45 0 56 8 65 43 l6 27 213 -2 212 -3 5 -123 5 -124
45 124 45 123 81 3 c57 2 84 -1 91 -10 6 -7 25 -53 43 -103 35 -97 50 -123 50
-87 0 13 7 39 16 60 51 122 212 178 341 118 l51 -24 6 24 c6 23 10 24 96 24
70 0 91 -3 98 -16 8 -14 10 -14 21 0 12 14 51 16 281 16 l267 0 532 70 c293
39 565 70 604 69 62 -1 67 -2 37 -10 -19 -4 -233 -34 -475 -64 -242 -31 -446
-59 -454 -61 -9 -3 2 -13 27 -25 42 -21 82 -65 82 -91 1 -7 10 4 20 24 34 63
82 92 161 96 60 4 77 1 125 -23 35 -17 63 -39 73 -57 13 -24 21 -28 46 -24 17
3 442 59 945 125 503 66 929 122 945 124 45 6 67 5 100 -3z m-10590 -29 c22
-5 33 -9 25 -10 -8 -1 -186 -24 -395 -51 -395 -52 -450 -57 -460 -40 -3 6 0
10 8 10 11 0 533 67 722 93 48 7 58 6 100 -2z m5350 -12 c-46 -14 -873 -119
-934 -119 -30 0 -51 3 -47 8 13 12 846 120 931 120 63 0 74 -2 50 -9z m8830 1
c-52 -23 -552 -73 -532 -54 11 11 407 62 482 62 49 1 64 -2 50 -8z m-13196
-54 c-4 -4 -295 -43 -1334 -177 -126 -16 -297 -38 -379 -49 -81 -11 -178 -19
-215 -19 l-66 1 51 9 c27 4 331 45 675 89 343 45 737 96 874 114 220 30 407
45 394 32z m13895 -37 c45 -1 -12 -10 -381 -59 -383 -50 -458 -57 -467 -42 -3
5 163 30 367 56 205 26 379 49 387 51 8 2 28 1 44 -1 16 -2 38 -4 50 -5z
m-3534 -29 c14 -4 19 -8 13 -9 -14 -1 -1724 -225 -2071 -271 -228 -31 -307
-36 -316 -22 -2 4 107 22 242 40 136 18 589 77 1007 132 418 55 823 108 900
119 156 21 189 23 225 11z m-12630 -40 c14 -4 19 -8 11 -9 -8 -1 -236 -30
-508 -66 -493 -65 -567 -72 -577 -57 -3 5 90 21 207 36 117 15 340 45 497 66
302 40 330 43 370 30z m3950 2 c0 -9 -933 -133 -997 -132 -116 0 -3 21 415 77
440 58 582 72 582 55z m12568 -38 c-11 -10 -2271 -304 -2338 -303 -122 1 -31
17 450 79 261 34 756 99 1100 144 548 73 807 100 788 80z m-2383 -14 c-18 -8
-371 -56 -1035 -140 -156 -20 -237 -26 -265 -20 -22 4 -35 8 -28 9 26 2 1092
143 1143 150 77 12 211 12 185 1z m-3465 -8 c0 -11 -409 -63 -485 -61 -87 1
-58 8 168 39 209 28 317 36 317 22z m2685 -31 c-6 -4 -262 -41 -570 -80 -308
-40 -731 -95 -939 -122 -381 -49 -458 -56 -440 -41 5 5 261 41 569 81 308 40
724 94 925 120 365 49 473 59 455 42z m-11035 -29 c0 -9 -1406 -193 -1469
-193 -24 1 -41 4 -37 9 10 10 1366 190 1444 191 34 1 62 -2 62 -7z m-2342 -78
c-3 -3 -208 -32 -454 -65 -411 -54 -589 -70 -570 -52 11 12 856 120 945 122
46 0 82 -2 79 -5z m11021 -83 c33 -9 -834 -122 -924 -120 l-70 1 50 10 c82 15
858 116 890 116 17 0 41 -3 54 -7z m-9339 -51 c14 -4 18 -8 10 -9 -9 -1 -254
-32 -545 -71 -1926 -253 -1806 -238 -1832 -222 -7 4 445 68 1005 141 559 74
1076 142 1147 151 145 20 179 22 215 10z m-1525 -50 c-70 -19 -692 -93 -711
-85 -17 8 -15 10 11 13 17 2 156 21 310 41 259 36 467 52 390 31z m12890 -6
c-9 -3 -465 -64 -1305 -174 -129 -17 -405 -53 -613 -80 -368 -49 -467 -58
-467 -42 0 4 217 35 483 70 265 35 766 101 1112 147 362 48 666 83 715 83 47
0 81 -1 75 -4z m1854 2 c-4 -4 -569 -80 -664 -89 -22 -3 -51 -1 -65 3 l-25 8
25 1 c14 1 153 19 310 40 249 34 432 50 419 37z m1950 -1 c-3 -2 -383 -54
-844 -114 -462 -61 -978 -129 -1146 -151 -304 -40 -412 -48 -393 -31 5 4 329
50 719 101 391 51 888 116 1105 145 339 46 575 67 559 50z m-12432 -83 c17
-11 -394 -63 -477 -61 -84 2 -65 6 175 39 212 30 282 35 302 22z m1540 -10 c7
-4 -514 -76 -1156 -160 -884 -116 -1176 -151 -1202 -145 -39 11 -118 -1 1056
153 424 56 865 114 980 129 218 30 302 36 322 23z m-3550 -68 c-3 -4 -156 -26
-339 -50 -642 -85 -653 -86 -689 -76 -22 7 -27 11 -14 12 11 0 216 27 455 59
388 53 605 73 587 55z m4511 -9 c-5 -5 -233 -37 -383 -54 -44 -5 -96 -6 -115
-1 -20 4 -26 9 -15 9 11 1 97 12 190 25 155 22 336 33 323 21z m10971 -30 c-8
-7 -769 -105 -820 -105 -116 0 -27 18 299 62 297 39 537 59 521 43z m-4764
-30 c-5 -3 -131 -20 -279 -40 -256 -33 -388 -43 -372 -28 13 13 470 70 566 71
52 0 91 -1 85 -3z m-5480 -15 c-32 -14 -1405 -190 -1476 -189 -109 2 -34 15
426 74 237 31 540 71 675 90 237 32 419 44 375 25z m4515 -8 c0 -6 -231 -38
-962 -133 -156 -20 -239 -26 -265 -21 -36 8 -33 9 47 20 47 6 294 38 550 72
256 33 472 62 480 64 29 7 150 6 150 -2z m-9726 -40 c5 -8 -1313 -183 -1371
-182 -17 0 -34 4 -37 8 -3 5 111 24 252 42 141 18 433 57 647 86 383 51 499
62 509 46z m13264 3 c-3 -3 -160 -26 -349 -50 -189 -25 -393 -52 -452 -60
-100 -14 -288 -19 -242 -7 11 3 211 31 445 62 367 50 616 72 598 55z m-15289
-50 c-7 -6 -454 -65 -498 -65 -21 0 -41 3 -45 7 -11 11 362 61 463 62 46 0 82
-1 80 -4z m10006 -10 c-11 -5 -356 -51 -450 -60 -33 -4 -71 -2 -85 3 -20 7 -5
12 80 22 58 7 143 18 190 25 77 11 289 19 265 10z m6929 -14 c25 -10 -380 -62
-469 -60 -91 2 -72 6 175 39 218 30 264 33 294 21z"/>
<path d="M9003 1110 c0 -41 2 -58 4 -37 2 20 2 54 0 75 -2 20 -4 3 -4 -38z"/>
<path d="M8595 1131 c-28 -6 -30 -10 -33 -54 l-3 -47 40 0 c24 0 41 5 41 11 0
7 -12 10 -30 7 -24 -4 -30 -1 -30 14 0 13 8 18 30 18 17 0 30 5 30 10 0 6 -13
10 -30 10 -16 0 -30 5 -30 10 0 6 14 10 30 10 17 0 30 5 30 10 0 11 0 11 -45
1z"/>
<path d="M8688 1088 c-10 -36 -11 -54 -4 -57 5 -2 12 1 14 8 5 14 42 15 42 1
0 -5 7 -10 16 -10 10 0 14 6 11 14 -3 8 -11 32 -18 55 -18 60 -42 55 -61 -11z
m42 -8 c0 -5 -4 -10 -10 -10 -5 0 -10 5 -10 10 0 6 5 10 10 10 6 0 10 -4 10
-10z"/>
<path d="M8790 1085 c0 -30 5 -55 10 -55 6 0 10 9 10 20 0 12 7 20 16 20 9 0
18 -9 21 -20 10 -37 29 -22 28 23 0 55 -9 67 -51 67 l-34 0 0 -55z m60 20 c0
-8 -9 -15 -20 -15 -11 0 -20 7 -20 15 0 8 9 15 20 15 11 0 20 -7 20 -15z"/>
<path d="M8900 1085 c0 -42 3 -55 15 -55 10 0 15 10 15 28 l1 27 17 -27 c27
-45 42 -35 42 28 0 40 -3 54 -12 51 -8 -2 -12 -16 -10 -32 3 -25 1 -27 -12
-16 -8 7 -18 21 -21 32 -4 10 -13 19 -21 19 -10 0 -14 -14 -14 -55z"/>
<path d="M9201 1124 c-24 -18 -29 -64 -6 -64 9 0 15 9 15 25 0 30 24 43 45 25
18 -15 34 -5 19 10 -18 18 -51 19 -73 4z"/>
<path d="M9321 1124 c-12 -8 -21 -22 -21 -30 0 -21 27 -17 33 6 7 26 34 26 42
0 6 -18 25 -19 25 -2 -1 32 -48 48 -79 26z"/>
<path d="M9420 1115 c0 -14 5 -25 10 -25 6 0 10 7 10 15 0 18 14 19 40 3 24
-15 37 -4 20 17 -7 8 -28 15 -46 15 -30 0 -34 -3 -34 -25z"/>
<path d="M9536 1124 c-5 -12 -2 -15 10 -10 8 3 27 6 40 6 13 0 24 5 24 10 0
17 -67 12 -74 -6z"/>
<path d="M9807 1127 c-11 -28 -9 -97 3 -97 6 0 10 11 10 25 0 20 5 25 25 25
20 0 25 -5 25 -25 0 -14 6 -25 13 -25 18 0 17 102 0 107 -8 3 -13 -5 -13 -19
0 -35 -43 -33 -50 2 -5 22 -6 23 -13 7z"/>
<path d="M9945 1109 c-8 -34 1 -51 16 -29 8 13 10 13 18 0 15 -22 24 -5 16 29
-4 21 -13 31 -25 31 -12 0 -21 -10 -25 -31z"/>
<path d="M10057 1122 c-18 -20 -22 -42 -8 -42 5 0 15 10 24 23 13 19 18 21 37
9 28 -17 41 -5 16 14 -27 19 -50 18 -69 -4z"/>
<path d="M10160 1120 c0 -11 5 -20 10 -20 6 0 10 9 10 20 0 11 -4 20 -10 20
-5 0 -10 -9 -10 -20z"/>
<path d="M10205 1120 c-15 -16 -15 -20 -3 -20 8 0 23 9 33 20 15 16 15 20 3
20 -8 0 -23 -9 -33 -20z"/>
<path d="M8460 1075 l0 -45 40 0 c22 0 40 5 40 10 0 6 -11 10 -25 10 -22 0
-25 4 -25 35 0 24 -5 35 -15 35 -11 0 -15 -12 -15 -45z"/>
<path d="M9530 1055 c0 -22 4 -25 40 -25 23 0 40 5 40 11 0 7 -12 10 -30 7
-24 -4 -30 -1 -30 14 0 10 -4 18 -10 18 -5 0 -10 -11 -10 -25z"/>
<path d="M10196 1073 c-8 -9 24 -43 41 -43 11 0 11 4 1 20 -14 22 -33 32 -42
23z"/>
<path d="M9474 1059 c-3 -6 -17 -8 -30 -5 -17 5 -24 2 -24 -9 0 -24 67 -20 80
5 8 16 8 20 -4 20 -8 0 -18 -5 -22 -11z"/>
<path d="M10160 1050 c0 -11 5 -20 10 -20 6 0 10 9 10 20 0 11 -4 20 -10 20
-5 0 -10 -9 -10 -20z"/>
<path d="M9366 1051 c-3 -5 -16 -7 -29 -5 l-22 5 22 -12 c23 -12 53 -6 53 11
0 12 -17 13 -24 1z"/>
<path d="M10060 1050 c0 -19 51 -23 68 -6 14 14 14 16 1 16 -8 0 -20 -5 -26
-11 -8 -8 -13 -8 -17 0 -9 14 -26 14 -26 1z"/>
<path d="M9690 1040 c0 -5 7 -10 15 -10 8 0 15 5 15 10 0 6 -7 10 -15 10 -8 0
-15 -4 -15 -10z"/>
<path d="M9925 1040 c-3 -5 1 -10 9 -10 9 0 16 5 16 10 0 6 -4 10 -9 10 -6 0
-13 -4 -16 -10z"/>
<path d="M9990 1040 c0 -5 7 -10 15 -10 8 0 15 5 15 10 0 6 -7 10 -15 10 -8 0
-15 -4 -15 -10z"/>
<path d="M9972 751 l-43 -51 36 -60 c20 -33 40 -62 45 -65 10 -6 18 157 10
200 -5 27 -5 27 -48 -24z"/>
<path d="M7917 704 c-34 -29 -58 -30 -82 -4 -20 22 -64 27 -83 8 -17 -17 -15
-36 6 -41 16 -4 16 -5 0 -6 -23 -1 -23 -14 0 -34 26 -23 46 -21 78 8 34 31 39
31 78 -2 l31 -26 3 31 c2 18 2 45 0 61 l-3 30 -28 -25z"/>
<path d="M9587 704 c-34 -29 -58 -30 -82 -4 -20 22 -64 27 -83 8 -18 -18 -14
-63 6 -81 26 -23 46 -21 78 8 34 31 39 31 78 -2 l31 -26 3 31 c2 18 2 45 0 61
l-3 30 -28 -25z"/>
<path d="M10750 679 c0 -9 -11 -32 -24 -51 -22 -33 -22 -36 -7 -57 l17 -22 31
38 30 38 -23 35 c-14 20 -24 28 -24 19z"/>
<path d="M8996 475 c-10 -28 -7 -31 35 -27 31 3 39 8 37 21 -4 23 -63 28 -72
6z"/>
</g>
</svg>
